<?xml version="1.0" encoding="utf-8"?>
<!-- Generator: Adobe Illustrator 16.0.0, SVG Export Plug-In . SVG Version: 6.00 Build 0)  -->
<!DOCTYPE svg PUBLIC "-//W3C//DTD SVG 1.1//EN" "http://www.w3.org/Graphics/SVG/1.1/DTD/svg11.dtd">
<svg version="1.1" id="Logo_FIXED" xmlns="http://www.w3.org/2000/svg" xmlns:xlink="http://www.w3.org/1999/xlink" x="0px" y="0px"
	 width="64px" height="64px" viewBox="0 0 64 64" enable-background="new 0 0 64 64" xml:space="preserve">
<title>Twitter_Logo_Blue</title>
<path fill="#1DA1F2" d="M20.469,57.254c23.455,0,36.283-19.431,36.283-36.282c0-0.552,0-1.101-0.036-1.648
	c2.494-1.805,4.647-4.04,6.36-6.601c-2.327,1.031-4.797,1.708-7.323,2.006c2.662-1.593,4.651-4.1,5.604-7.053
	c-2.504,1.485-5.24,2.532-8.096,3.095c-4.83-5.135-12.908-5.383-18.043-0.554c-3.312,3.115-4.717,7.755-3.689,12.184
	C21.277,21.888,11.725,17.045,5.25,9.079c-3.385,5.827-1.656,13.28,3.947,17.022c-2.029-0.06-4.014-0.607-5.788-1.596
	c0,0.052,0,0.107,0,0.162c0.002,6.07,4.281,11.298,10.23,12.5c-1.878,0.513-3.847,0.587-5.758,0.218
	c1.671,5.196,6.458,8.754,11.913,8.855c-4.515,3.55-10.093,5.476-15.836,5.471c-1.014-0.002-2.028-0.062-3.035-0.184
	c5.831,3.742,12.616,5.727,19.545,5.718"/>
</svg>
